<svg width="286" height="141" viewBox="0 0 286 141" fill="none" xmlns="http://www.w3.org/2000/svg">
<g clip-path="url(#clip0_115_123)">
<path d="M108.921 49.4574C109.712 49.4574 110.365 49.7322 110.882 50.2819C111.398 50.8315 111.657 51.5267 111.657 52.3673C111.657 53.1433 111.398 53.8061 110.882 54.3558C110.365 54.9054 109.712 55.1803 108.921 55.1803H78.5614V79.5268H104.819C105.609 79.5268 106.262 79.7854 106.779 80.3028C107.296 80.8201 107.554 81.4991 107.554 82.3397C107.554 83.1804 107.296 83.8593 106.779 84.3767C106.262 84.894 105.609 85.1527 104.819 85.1527H78.5614V114.446C78.5614 115.287 78.3031 115.982 77.7865 116.532C77.2699 117.081 76.6165 117.356 75.8263 117.356C74.9754 117.356 74.2916 117.081 73.775 116.532C73.2583 115.982 73 115.287 73 114.446V52.3673C73 51.5267 73.2583 50.8315 73.775 50.2819C74.2916 49.7322 74.945 49.4574 75.7351 49.4574H108.921ZM169.277 113.476C169.398 113.993 169.459 114.381 169.459 114.64C169.459 115.481 169.186 116.16 168.639 116.677C168.092 117.194 167.453 117.453 166.724 117.453C166.116 117.453 165.584 117.275 165.128 116.92C164.673 116.564 164.323 116.095 164.08 115.513L157.242 97.7624H127.612L120.865 115.513C120.379 116.806 119.558 117.453 118.403 117.453C117.552 117.453 116.914 117.227 116.489 116.774C116.063 116.321 115.82 115.707 115.759 114.931V114.64C115.759 114.252 115.79 113.961 115.85 113.767L139.92 51.1063C140.406 49.813 141.318 49.1664 142.655 49.1664C143.263 49.1664 143.794 49.3442 144.25 49.6999C144.706 50.0555 145.056 50.5244 145.299 51.1063L169.277 113.476ZM142.29 58.8662L129.708 92.0395H155.054L142.29 58.8662ZM206.657 49.4574C212.492 49.4574 217.4 50.9932 221.381 54.0648C225.362 57.1364 228.34 61.2426 230.316 66.3835C232.291 71.5244 233.279 77.1988 233.279 83.4067C233.279 89.8086 232.291 95.5638 230.316 100.672C228.34 105.781 225.362 109.839 221.381 112.846C217.4 115.853 212.492 117.356 206.657 117.356H183.408C182.618 117.356 181.965 117.081 181.448 116.532C180.931 115.982 180.673 115.287 180.673 114.446V52.3673C180.673 51.5267 180.931 50.8315 181.448 50.2819C181.965 49.7322 182.618 49.4574 183.408 49.4574H206.657ZM205.745 111.633C213.039 111.633 218.479 109.03 222.065 103.825C225.651 98.6192 227.444 91.8132 227.444 83.4067C227.444 78.1688 226.684 73.4321 225.165 69.1965C223.645 64.9609 221.26 61.566 218.008 59.0117C214.756 56.4574 210.668 55.1803 205.745 55.1803H186.417V111.633H205.745ZM282.42 111.633C283.21 111.633 283.864 111.924 284.38 112.506C284.897 113.088 285.155 113.767 285.155 114.543C285.155 115.384 284.897 116.063 284.38 116.58C283.864 117.097 283.21 117.356 282.42 117.356H248.96C248.17 117.356 247.517 117.081 247 116.532C246.484 115.982 246.225 115.287 246.225 114.446V52.3673C246.225 51.5267 246.484 50.8315 247 50.2819C247.517 49.7322 248.17 49.4574 248.96 49.4574H282.42C283.21 49.4574 283.864 49.7322 284.38 50.2819C284.897 50.8315 285.155 51.5267 285.155 52.3673C285.155 53.208 284.897 53.887 284.38 54.4043C283.864 54.9216 283.21 55.1803 282.42 55.1803H251.969V79.5268H278.317C279.108 79.5268 279.761 79.8016 280.278 80.3512C280.794 80.9009 281.053 81.5961 281.053 82.4367C281.053 83.2774 280.794 83.9563 280.278 84.4737C279.761 84.991 279.108 85.2496 278.317 85.2496H251.969V111.633H282.42Z" fill="#15B988"/>
</g>
<g clip-path="url(#clip1_115_123)">
<path d="M54.585 47.4709V69.0255H74.8449L54.585 47.4709Z" fill="#15B988"/>
<path d="M17.1153 81.3286L2 65.2474V124.971H58.1359L43.0207 108.889H17.1153V81.3286Z" fill="#84E9D7" fill-opacity="0.4"/>
<path d="M17.1152 49.2147V81.3771L43.0206 108.938H73.2512L17.1152 49.2147Z" fill="#1E9773"/>
<path d="M17.1152 108.889H43.0206L17.1152 81.3286V108.889Z" fill="#286758"/>
</g>
<g clip-path="url(#clip2_115_123)">
<path d="M103.129 131.027C103.784 131.202 104.32 131.55 104.735 132.073C105.15 132.596 105.358 133.276 105.358 134.113C105.358 135.252 105.027 136.104 104.366 136.667C103.705 137.231 102.883 137.513 101.9 137.513H97.4916C97.3496 137.513 97.2322 137.464 97.1393 137.365C97.0464 137.266 97 137.141 97 136.99V125.832C97 125.681 97.0464 125.556 97.1393 125.457C97.2322 125.358 97.3496 125.309 97.4916 125.309H101.834C102.752 125.309 103.47 125.576 103.989 126.111C104.508 126.645 104.768 127.378 104.768 128.307C104.768 128.923 104.626 129.476 104.342 129.964C104.058 130.452 103.653 130.806 103.129 131.027ZM103.719 128.395C103.719 127.755 103.541 127.253 103.186 126.886C102.831 126.52 102.337 126.337 101.703 126.337H98.0488V130.696H101.703C102.293 130.684 102.777 130.481 103.154 130.086C103.53 129.691 103.719 129.127 103.719 128.395ZM101.851 136.484C102.583 136.484 103.175 136.287 103.629 135.892C104.082 135.496 104.309 134.904 104.309 134.113C104.309 133.3 104.077 132.701 103.612 132.317C103.148 131.934 102.55 131.742 101.818 131.742H98.0488V136.484H101.851ZM114.715 128.604C114.857 128.604 114.974 128.656 115.067 128.761C115.16 128.865 115.207 128.993 115.207 129.144V136.99C115.207 137.141 115.16 137.266 115.067 137.365C114.974 137.464 114.857 137.513 114.715 137.513C114.573 137.513 114.456 137.464 114.363 137.365C114.27 137.266 114.223 137.141 114.223 136.99V135.822C113.95 136.345 113.541 136.787 112.994 137.147C112.448 137.507 111.853 137.687 111.208 137.687C110.476 137.687 109.818 137.484 109.233 137.077C108.649 136.67 108.19 136.112 107.857 135.403C107.524 134.694 107.357 133.898 107.357 133.015C107.357 132.131 107.526 131.338 107.865 130.635C108.204 129.932 108.665 129.383 109.25 128.987C109.834 128.592 110.482 128.395 111.192 128.395C111.847 128.395 112.448 128.563 112.994 128.9C113.541 129.237 113.95 129.679 114.223 130.225V129.144C114.223 128.993 114.27 128.865 114.363 128.761C114.456 128.656 114.573 128.604 114.715 128.604ZM111.306 136.711C111.874 136.711 112.385 136.551 112.839 136.232C113.292 135.912 113.647 135.47 113.904 134.906C114.161 134.343 114.289 133.712 114.289 133.015C114.289 132.341 114.161 131.725 113.904 131.167C113.647 130.609 113.292 130.17 112.839 129.85C112.385 129.531 111.874 129.371 111.306 129.371C110.738 129.371 110.228 129.528 109.774 129.842C109.321 130.155 108.966 130.588 108.709 131.141C108.452 131.693 108.324 132.317 108.324 133.015C108.324 133.712 108.449 134.343 108.701 134.906C108.952 135.47 109.304 135.912 109.758 136.232C110.211 136.551 110.727 136.711 111.306 136.711ZM124.318 128.447C124.46 128.447 124.578 128.496 124.67 128.595C124.763 128.694 124.81 128.819 124.81 128.97V136.659C124.81 137.577 124.64 138.361 124.302 139.012C123.963 139.663 123.493 140.157 122.892 140.494C122.292 140.831 121.614 141 120.86 141C120.401 141 119.973 140.948 119.574 140.843C119.175 140.738 118.845 140.599 118.582 140.425C118.353 140.274 118.238 140.105 118.238 139.919C118.238 139.896 118.249 139.838 118.271 139.745C118.304 139.628 118.359 139.541 118.435 139.483C118.511 139.425 118.593 139.396 118.681 139.396C118.746 139.396 118.812 139.413 118.877 139.448C119.577 139.855 120.243 140.058 120.877 140.058C121.784 140.058 122.502 139.756 123.032 139.152C123.562 138.547 123.826 137.722 123.826 136.676V136.066C123.553 136.554 123.16 136.946 122.647 137.243C122.133 137.539 121.576 137.687 120.975 137.687C120.025 137.687 119.304 137.385 118.812 136.781C118.32 136.176 118.074 135.357 118.074 134.322V128.97C118.074 128.819 118.121 128.694 118.214 128.595C118.307 128.496 118.424 128.447 118.566 128.447C118.708 128.447 118.826 128.496 118.918 128.595C119.011 128.694 119.058 128.819 119.058 128.97V134.165C119.058 135.002 119.23 135.636 119.574 136.066C119.918 136.496 120.456 136.711 121.188 136.711C121.636 136.711 122.065 136.592 122.475 136.354C122.884 136.115 123.212 135.801 123.458 135.412C123.704 135.023 123.826 134.607 123.826 134.165V128.97C123.826 128.819 123.873 128.694 123.966 128.595C124.059 128.496 124.176 128.447 124.318 128.447ZM141.64 136.816C141.662 136.909 141.673 136.978 141.673 137.025C141.673 137.176 141.623 137.298 141.525 137.391C141.427 137.484 141.312 137.53 141.181 137.53C141.072 137.53 140.976 137.498 140.894 137.435C140.812 137.371 140.749 137.286 140.706 137.182L139.477 133.991H134.151L132.938 137.182C132.851 137.414 132.703 137.53 132.496 137.53C132.343 137.53 132.228 137.49 132.151 137.408C132.075 137.327 132.031 137.217 132.02 137.077V137.025C132.02 136.955 132.026 136.903 132.037 136.868L136.363 125.605C136.45 125.373 136.614 125.256 136.855 125.256C136.964 125.256 137.059 125.288 137.141 125.352C137.223 125.416 137.286 125.5 137.33 125.605L141.64 136.816ZM136.789 127L134.528 132.962H139.083L136.789 127ZM147.851 128.395C148.069 128.395 148.266 128.441 148.441 128.534C148.615 128.627 148.703 128.767 148.703 128.952C148.703 129.115 148.659 129.246 148.572 129.345C148.484 129.444 148.381 129.493 148.26 129.493C148.206 129.493 148.099 129.464 147.941 129.406C147.782 129.348 147.632 129.319 147.49 129.319C147.086 129.319 146.684 129.484 146.286 129.816C145.887 130.147 145.559 130.574 145.302 131.097C145.046 131.62 144.917 132.149 144.917 132.684V136.99C144.917 137.141 144.871 137.266 144.778 137.365C144.685 137.464 144.568 137.513 144.426 137.513C144.284 137.513 144.166 137.464 144.073 137.365C143.981 137.266 143.934 137.141 143.934 136.99V129.179C143.934 129.028 143.981 128.903 144.073 128.804C144.166 128.705 144.284 128.656 144.426 128.656C144.568 128.656 144.685 128.705 144.778 128.804C144.871 128.903 144.917 129.028 144.917 129.179V130.713C145.169 130.051 145.548 129.502 146.056 129.066C146.564 128.63 147.162 128.406 147.851 128.395ZM157.454 132.544C157.454 132.684 157.405 132.803 157.306 132.901C157.208 133 157.093 133.05 156.962 133.05H150.768C150.768 133.747 150.902 134.372 151.169 134.924C151.437 135.476 151.819 135.912 152.316 136.232C152.813 136.551 153.401 136.711 154.078 136.711C154.602 136.711 155.072 136.595 155.487 136.362C155.902 136.13 156.236 135.833 156.487 135.473C156.607 135.369 156.722 135.316 156.831 135.316C156.94 135.316 157.039 135.363 157.126 135.456C157.214 135.549 157.257 135.653 157.257 135.77C157.257 135.897 157.203 136.019 157.093 136.136C156.744 136.589 156.304 136.961 155.774 137.251C155.244 137.542 154.684 137.687 154.094 137.687C153.253 137.687 152.51 137.496 151.866 137.112C151.221 136.728 150.719 136.191 150.358 135.499C149.997 134.808 149.817 134.009 149.817 133.102C149.817 132.149 149.995 131.315 150.35 130.6C150.705 129.885 151.177 129.339 151.767 128.961C152.357 128.583 152.986 128.395 153.652 128.395C154.307 128.395 154.922 128.557 155.496 128.883C156.069 129.208 156.536 129.685 156.897 130.312C157.257 130.94 157.443 131.684 157.454 132.544ZM153.652 129.406C153.018 129.406 152.431 129.638 151.89 130.103C151.349 130.568 151.003 131.236 150.85 132.108H156.438V131.969C156.383 131.446 156.219 130.989 155.946 130.6C155.673 130.211 155.332 129.914 154.922 129.711C154.512 129.507 154.089 129.406 153.652 129.406ZM166.844 128.604C166.986 128.604 167.103 128.656 167.196 128.761C167.289 128.865 167.336 128.993 167.336 129.144V136.99C167.336 137.141 167.289 137.266 167.196 137.365C167.103 137.464 166.986 137.513 166.844 137.513C166.702 137.513 166.584 137.464 166.492 137.365C166.399 137.266 166.352 137.141 166.352 136.99V135.822C166.079 136.345 165.67 136.787 165.123 137.147C164.577 137.507 163.982 137.687 163.337 137.687C162.605 137.687 161.947 137.484 161.362 137.077C160.778 136.67 160.319 136.112 159.986 135.403C159.653 134.694 159.486 133.898 159.486 133.015C159.486 132.131 159.655 131.338 159.994 130.635C160.333 129.932 160.794 129.383 161.379 128.987C161.963 128.592 162.61 128.395 163.321 128.395C163.976 128.395 164.577 128.563 165.123 128.9C165.67 129.237 166.079 129.679 166.352 130.225V129.144C166.352 128.993 166.399 128.865 166.492 128.761C166.584 128.656 166.702 128.604 166.844 128.604ZM163.435 136.711C164.003 136.711 164.514 136.551 164.968 136.232C165.421 135.912 165.776 135.47 166.033 134.906C166.29 134.343 166.418 133.712 166.418 133.015C166.418 132.341 166.29 131.725 166.033 131.167C165.776 130.609 165.421 130.17 164.968 129.85C164.514 129.531 164.003 129.371 163.435 129.371C162.867 129.371 162.356 129.528 161.903 129.842C161.45 130.155 161.095 130.588 160.838 131.141C160.581 131.693 160.453 132.317 160.453 133.015C160.453 133.712 160.578 134.343 160.83 134.906C161.081 135.47 161.433 135.912 161.887 136.232C162.34 136.551 162.856 136.711 163.435 136.711ZM183.985 126.215C184.149 126.32 184.231 126.465 184.231 126.651C184.231 126.756 184.193 126.872 184.116 127C184.018 127.128 183.893 127.192 183.74 127.192C183.652 127.192 183.565 127.163 183.477 127.104C182.603 126.488 181.647 126.18 180.61 126.18C179.725 126.18 178.924 126.401 178.209 126.843C177.493 127.285 176.931 127.903 176.521 128.7C176.111 129.496 175.906 130.4 175.906 131.411C175.906 132.445 176.114 133.361 176.529 134.157C176.944 134.953 177.51 135.569 178.225 136.005C178.941 136.441 179.736 136.659 180.61 136.659C181.647 136.659 182.598 136.356 183.461 135.752C183.548 135.694 183.641 135.665 183.74 135.665C183.893 135.665 184.018 135.735 184.116 135.874C184.193 135.967 184.231 136.078 184.231 136.205C184.231 136.391 184.155 136.531 184.002 136.624C183.576 136.926 183.051 137.179 182.429 137.382C181.806 137.586 181.199 137.687 180.61 137.687C179.572 137.687 178.613 137.423 177.734 136.894C176.854 136.365 176.155 135.624 175.636 134.671C175.117 133.718 174.857 132.631 174.857 131.411C174.857 130.237 175.114 129.17 175.628 128.212C176.141 127.253 176.835 126.503 177.709 125.962C178.583 125.422 179.55 125.152 180.61 125.152C181.221 125.152 181.819 125.245 182.404 125.431C182.988 125.617 183.516 125.878 183.985 126.215ZM193.359 128.604C193.501 128.604 193.619 128.656 193.711 128.761C193.804 128.865 193.851 128.993 193.851 129.144V136.99C193.851 137.141 193.804 137.266 193.711 137.365C193.619 137.464 193.501 137.513 193.359 137.513C193.217 137.513 193.1 137.464 193.007 137.365C192.914 137.266 192.867 137.141 192.867 136.99V135.822C192.594 136.345 192.185 136.787 191.638 137.147C191.092 137.507 190.497 137.687 189.852 137.687C189.12 137.687 188.462 137.484 187.877 137.077C187.293 136.67 186.834 136.112 186.501 135.403C186.168 134.694 186.001 133.898 186.001 133.015C186.001 132.131 186.17 131.338 186.509 130.635C186.848 129.932 187.309 129.383 187.894 128.987C188.478 128.592 189.126 128.395 189.836 128.395C190.491 128.395 191.092 128.563 191.638 128.9C192.185 129.237 192.594 129.679 192.867 130.225V129.144C192.867 128.993 192.914 128.865 193.007 128.761C193.1 128.656 193.217 128.604 193.359 128.604ZM189.95 136.711C190.519 136.711 191.029 136.551 191.483 136.232C191.936 135.912 192.291 135.47 192.548 134.906C192.805 134.343 192.933 133.712 192.933 133.015C192.933 132.341 192.805 131.725 192.548 131.167C192.291 130.609 191.936 130.17 191.483 129.85C191.029 129.531 190.519 129.371 189.95 129.371C189.382 129.371 188.872 129.528 188.418 129.842C187.965 130.155 187.61 130.588 187.353 131.141C187.096 131.693 186.968 132.317 186.968 133.015C186.968 133.712 187.094 134.343 187.345 134.906C187.596 135.47 187.948 135.912 188.402 136.232C188.855 136.551 189.371 136.711 189.95 136.711ZM200.832 128.395C201.05 128.395 201.247 128.441 201.422 128.534C201.597 128.627 201.684 128.767 201.684 128.952C201.684 129.115 201.64 129.246 201.553 129.345C201.465 129.444 201.362 129.493 201.242 129.493C201.187 129.493 201.08 129.464 200.922 129.406C200.764 129.348 200.613 129.319 200.471 129.319C200.067 129.319 199.666 129.484 199.267 129.816C198.868 130.147 198.54 130.574 198.284 131.097C198.027 131.62 197.898 132.149 197.898 132.684V136.99C197.898 137.141 197.852 137.266 197.759 137.365C197.666 137.464 197.549 137.513 197.407 137.513C197.265 137.513 197.147 137.464 197.054 137.365C196.962 137.266 196.915 137.141 196.915 136.99V129.179C196.915 129.028 196.962 128.903 197.054 128.804C197.147 128.705 197.265 128.656 197.407 128.656C197.549 128.656 197.666 128.705 197.759 128.804C197.852 128.903 197.898 129.028 197.898 129.179V130.713C198.15 130.051 198.529 129.502 199.037 129.066C199.545 128.63 200.144 128.406 200.832 128.395ZM207.698 128.534C208.419 128.534 209.075 128.729 209.665 129.118C210.255 129.507 210.716 130.048 211.05 130.74C211.383 131.431 211.549 132.207 211.549 133.067C211.549 133.939 211.383 134.721 211.05 135.412C210.716 136.104 210.257 136.647 209.673 137.042C209.088 137.437 208.436 137.635 207.715 137.635C207.081 137.635 206.499 137.475 205.969 137.156C205.439 136.836 205.016 136.409 204.699 135.874V140.477C204.699 140.628 204.653 140.753 204.56 140.852C204.467 140.951 204.35 141 204.208 141C204.066 141 203.948 140.951 203.855 140.852C203.762 140.753 203.716 140.628 203.716 140.477V129.109C203.716 128.958 203.762 128.83 203.855 128.726C203.948 128.621 204.066 128.569 204.208 128.569C204.35 128.569 204.467 128.621 204.56 128.726C204.653 128.83 204.699 128.958 204.699 129.109V130.295C204.983 129.749 205.393 129.319 205.928 129.005C206.464 128.691 207.054 128.534 207.698 128.534ZM207.616 136.659C208.184 136.659 208.695 136.505 209.149 136.197C209.602 135.889 209.957 135.461 210.214 134.915C210.47 134.369 210.599 133.753 210.599 133.067C210.599 132.393 210.47 131.786 210.214 131.245C209.957 130.705 209.602 130.28 209.149 129.972C208.695 129.664 208.184 129.51 207.616 129.51C207.037 129.51 206.518 129.661 206.059 129.964C205.601 130.266 205.246 130.687 204.994 131.228C204.743 131.768 204.617 132.381 204.617 133.067C204.617 133.753 204.743 134.369 204.994 134.915C205.246 135.461 205.601 135.889 206.059 136.197C206.518 136.505 207.037 136.659 207.616 136.659ZM221.808 133.05C221.808 133.921 221.628 134.712 221.267 135.421C220.907 136.13 220.41 136.685 219.776 137.086C219.142 137.487 218.438 137.687 217.662 137.687C216.886 137.687 216.182 137.487 215.548 137.086C214.914 136.685 214.417 136.13 214.057 135.421C213.696 134.712 213.516 133.921 213.516 133.05C213.516 132.178 213.696 131.388 214.057 130.679C214.417 129.97 214.914 129.412 215.548 129.005C216.182 128.598 216.886 128.395 217.662 128.395C218.438 128.395 219.142 128.598 219.776 129.005C220.41 129.412 220.907 129.97 221.267 130.679C221.628 131.388 221.808 132.178 221.808 133.05ZM220.825 133.05C220.825 132.352 220.688 131.725 220.415 131.167C220.142 130.609 219.762 130.17 219.276 129.85C218.79 129.531 218.252 129.371 217.662 129.371C217.072 129.371 216.537 129.531 216.056 129.85C215.575 130.17 215.196 130.609 214.917 131.167C214.638 131.725 214.499 132.352 214.499 133.05C214.499 133.735 214.638 134.357 214.917 134.915C215.196 135.473 215.575 135.912 216.056 136.232C216.537 136.551 217.072 136.711 217.662 136.711C218.252 136.711 218.79 136.554 219.276 136.24C219.762 135.926 220.142 135.491 220.415 134.933C220.688 134.375 220.825 133.747 220.825 133.05ZM232.05 133.05C232.05 133.921 231.87 134.712 231.509 135.421C231.149 136.13 230.652 136.685 230.018 137.086C229.384 137.487 228.68 137.687 227.904 137.687C227.128 137.687 226.424 137.487 225.79 137.086C225.156 136.685 224.659 136.13 224.299 135.421C223.938 134.712 223.758 133.921 223.758 133.05C223.758 132.178 223.938 131.388 224.299 130.679C224.659 129.97 225.156 129.412 225.79 129.005C226.424 128.598 227.128 128.395 227.904 128.395C228.68 128.395 229.384 128.598 230.018 129.005C230.652 129.412 231.149 129.97 231.509 130.679C231.87 131.388 232.05 132.178 232.05 133.05ZM231.067 133.05C231.067 132.352 230.93 131.725 230.657 131.167C230.384 130.609 230.004 130.17 229.518 129.85C229.032 129.531 228.494 129.371 227.904 129.371C227.314 129.371 226.779 129.531 226.298 129.85C225.817 130.17 225.438 130.609 225.159 131.167C224.881 131.725 224.741 132.352 224.741 133.05C224.741 133.735 224.881 134.357 225.159 134.915C225.438 135.473 225.817 135.912 226.298 136.232C226.779 136.551 227.314 136.711 227.904 136.711C228.494 136.711 229.032 136.554 229.518 136.24C230.004 135.926 230.384 135.491 230.657 134.933C230.93 134.375 231.067 133.747 231.067 133.05ZM235.639 136.99C235.639 137.141 235.593 137.266 235.5 137.365C235.407 137.464 235.289 137.513 235.147 137.513C235.005 137.513 234.888 137.464 234.795 137.365C234.702 137.266 234.656 137.141 234.656 136.99V125.134C234.656 124.983 234.702 124.858 234.795 124.759C234.888 124.661 235.005 124.611 235.147 124.611C235.289 124.611 235.407 124.661 235.5 124.759C235.593 124.858 235.639 124.983 235.639 125.134V136.99ZM239.769 136.99C239.769 137.141 239.722 137.266 239.629 137.365C239.537 137.464 239.419 137.513 239.277 137.513C239.135 137.513 239.018 137.464 238.925 137.365C238.832 137.266 238.786 137.141 238.786 136.99V128.97C238.786 128.819 238.832 128.694 238.925 128.595C239.018 128.496 239.135 128.447 239.277 128.447C239.419 128.447 239.537 128.496 239.629 128.595C239.722 128.694 239.769 128.819 239.769 128.97V136.99ZM239.277 127.279C239.059 127.279 238.889 127.224 238.769 127.113C238.649 127.003 238.589 126.843 238.589 126.634V126.459C238.589 126.25 238.652 126.09 238.777 125.98C238.903 125.869 239.075 125.814 239.294 125.814C239.731 125.814 239.949 126.029 239.949 126.459V126.634C239.949 126.843 239.892 127.003 239.777 127.113C239.662 127.224 239.496 127.279 239.277 127.279ZM246.766 128.395C247.782 128.395 248.528 128.711 249.003 129.345C249.478 129.978 249.716 130.818 249.716 131.864V136.99C249.716 137.141 249.667 137.266 249.569 137.365C249.47 137.464 249.356 137.513 249.224 137.513C249.082 137.513 248.965 137.464 248.872 137.365C248.779 137.266 248.733 137.141 248.733 136.99V131.916C248.733 131.161 248.555 130.548 248.2 130.077C247.845 129.606 247.296 129.371 246.553 129.371C246.083 129.371 245.638 129.487 245.218 129.72C244.797 129.952 244.456 130.263 244.193 130.652C243.931 131.042 243.8 131.463 243.8 131.916V136.99C243.8 137.141 243.754 137.266 243.661 137.365C243.568 137.464 243.451 137.513 243.308 137.513C243.166 137.513 243.049 137.464 242.956 137.365C242.863 137.266 242.817 137.141 242.817 136.99V129.179C242.817 129.028 242.863 128.903 242.956 128.804C243.049 128.705 243.166 128.656 243.308 128.656C243.451 128.656 243.568 128.705 243.661 128.804C243.754 128.903 243.8 129.028 243.8 129.179V130.138C244.095 129.638 244.518 129.223 245.07 128.891C245.622 128.56 246.187 128.395 246.766 128.395ZM259.86 128.604C260.002 128.604 260.119 128.653 260.212 128.752C260.305 128.851 260.352 128.982 260.352 129.144V136.694C260.352 137.6 260.174 138.376 259.819 139.021C259.464 139.666 258.978 140.157 258.36 140.494C257.743 140.831 257.036 141 256.238 141C255.856 141 255.454 140.948 255.034 140.843C254.613 140.738 254.253 140.605 253.952 140.442C253.652 140.279 253.48 140.111 253.436 139.936C253.36 139.855 253.321 139.762 253.321 139.657C253.321 139.541 253.37 139.448 253.469 139.379C253.512 139.344 253.567 139.326 253.633 139.326C253.698 139.326 253.824 139.367 254.01 139.448L254.354 139.605C255.031 139.884 255.665 140.024 256.255 140.024C257.227 140.024 257.989 139.73 258.541 139.143C259.092 138.556 259.368 137.763 259.368 136.763V135.682C259.095 136.31 258.664 136.801 258.074 137.156C257.484 137.51 256.866 137.687 256.222 137.687C255.468 137.687 254.788 137.487 254.182 137.086C253.575 136.685 253.097 136.13 252.748 135.421C252.398 134.712 252.223 133.916 252.223 133.032C252.223 132.16 252.398 131.37 252.748 130.661C253.097 129.952 253.575 129.397 254.182 128.996C254.788 128.595 255.463 128.395 256.206 128.395C256.894 128.395 257.525 128.578 258.098 128.944C258.672 129.31 259.095 129.749 259.368 130.26V129.144C259.368 128.993 259.415 128.865 259.508 128.761C259.6 128.656 259.718 128.604 259.86 128.604ZM256.304 136.711C256.905 136.711 257.443 136.557 257.918 136.249C258.393 135.941 258.765 135.505 259.032 134.941C259.3 134.378 259.434 133.741 259.434 133.032C259.434 132.323 259.3 131.69 259.032 131.132C258.765 130.574 258.393 130.141 257.918 129.833C257.443 129.525 256.905 129.371 256.304 129.371C255.714 129.371 255.181 129.531 254.706 129.85C254.231 130.17 253.859 130.609 253.592 131.167C253.324 131.725 253.19 132.346 253.19 133.032C253.19 133.73 253.324 134.357 253.592 134.915C253.859 135.473 254.231 135.912 254.706 136.232C255.181 136.551 255.714 136.711 256.304 136.711Z" fill="#15B988"/>
</g>
<defs>
<clipPath id="clip0_115_123">
<rect width="212.155" height="68.2866" fill="white" transform="translate(73 49.1664)"/>
</clipPath>
<clipPath id="clip1_115_123">
<rect width="72.8447" height="77.4996" fill="white" transform="translate(2 47.4709)"/>
</clipPath>
<clipPath id="clip2_115_123">
<rect width="163.352" height="16.3888" fill="white" transform="translate(97 124.611)"/>
</clipPath>
</defs>
</svg>
